USFL
nRows=198
nColumns=2
inDegrees=yes
endheader
time	soleus_r	
1.87488	 37.989380	
1.93738	 37.989109	
1.99987	 37.957303	
2.06237	 37.948204	
2.12486	 37.932262	
2.18736	 37.923600	
2.24986	 37.944313	
2.31235	 37.924609	
2.37485	 37.921624	
2.43734	 37.910529	
2.49984	 37.906163	
2.56234	 37.946030	
2.62483	 37.925619	
2.68733	 37.962007	
2.74982	 37.865050	
2.81232	 37.882467	
2.87482	 37.897443	
2.93731	 37.940258	
2.99981	 37.945936	
3.0623	 37.926769	
3.1248	 37.938224	
3.1873	 37.950240	
3.24979	 37.944612	
3.31229	 37.922323	
3.37478	 37.915003	
3.43728	 37.944038	
3.49978	 37.952315	
3.56227	 37.935043	
3.62477	 37.926512	
3.68726	 37.928445	
3.74976	 37.961443	
3.81226	 37.930944	
3.87475	 37.905895	
3.93725	 37.926019	
3.99974	 37.960305	
4.06224	 38.127098	
4.12474	 38.144403	
4.18723	 38.038190	
4.24973	 37.941885	
4.31222	 38.035289	
4.37472	 38.085360	
4.43722	 37.964829	
4.49971	 38.010279	
4.56221	 38.013391	
4.6247	 37.987987	
4.6872	 37.990162	
4.7497	 37.886656	
4.81219	 27.845979	
4.87469	 27.848779	
4.93718	 27.858377	
4.99968	 27.900763	
5.06218	 27.861665	
5.12467	 27.954348	
5.18717	 27.943236	
5.24966	 27.944957	
5.31216	 28.009095	
5.37466	 27.932153	
5.43715	 27.907719	
5.49965	 27.017950	
5.56214	 27.085221	
5.62464	 27.047149	
5.68714	 27.088516	
5.74963	 27.066980	
5.81213	 27.075703	
5.87462	 27.010507	
5.93712	 26.994406	
5.99962	 27.001897	
6.06211	 26.998597	
6.12461	 26.990771	
6.1871	 26.984841	
6.2496	 26.984104	
6.3121	 26.976710	
6.37459	 26.935549	
6.43709	 26.980210	
6.49958	 26.925536	
6.56208	 26.884980	
6.62458	 26.988305	
6.68707	 26.983310	
6.74957	 27.000752	
6.81206	 24.961493	
6.87456	 25.048692	
6.93706	 25.071730	
6.99955	 25.080547	
7.06205	 25.063817	
7.12454	 25.077351	
7.18704	 25.042872	
7.24954	 25.015093	
7.31203	 25.005631	
7.37453	 25.028458	
7.43702	 25.180471	
7.49952	 25.160977	
7.56202	 25.185262	
7.62451	 25.231721	
7.68701	 25.234364	
7.7495	 25.265021	
7.812	 25.230659	
7.8745	 25.176793	
7.93699	 25.195678	
7.99949	 25.261781	
8.06198	 25.256050	
8.12448	 25.367909	
8.18698	 25.504557	
8.24947	 25.527729	
8.31197	 25.470516	
8.37446	 25.361188	
8.43696	 25.341495	
8.49946	 25.397180	
8.56195	 25.427412	
8.62445	 25.426955	
8.68694	 25.418062	
8.74944	 25.368651	
8.81194	 25.350354	
8.87443	 25.388866	
8.93693	 25.367469	
8.99942	 25.339668	
9.06192	 25.348950	
9.12442	 25.286961	
9.18691	 25.256385	
9.24941	 25.208590	
9.3119	 25.170551	
9.3744	 25.230230	
9.4369	 25.148913	
9.49939	 25.052370	
9.56189	 25.057608	
9.62438	 25.112714	
9.68688	 25.229503	
9.74938	 25.221116	
9.81187	 25.299811	
9.87437	 25.279821	
9.93686	 25.270138	
9.99936	 25.353696	
10.0619	 25.407846	
10.1244	 25.360871	
10.1868	 25.387576	
10.2493	 25.410381	
10.3118	 30.531309	
10.3743	 30.582313	
10.4368	 30.713470	
10.4993	 30.701556	
10.5618	 30.814450	
10.6243	 30.995579	
10.6868	 31.932432	
10.7493	 31.977491	
10.8118	 32.109115	
10.8743	 32.126980	
10.9368	 32.171127	
10.9993	 32.205584	
11.0618	 32.227269	
11.1243	 32.227274	
11.1868	 32.255093	
11.2493	 32.239731	
11.3118	 32.290613	
11.3743	 32.336924	
11.4368	 32.351518	
11.4993	 32.422020	
11.5618	 32.456285	
11.6243	 32.446498	
11.6868	 32.513547	
11.7492	 32.540864	
11.8117	 32.552192	
11.8742	 32.582752	
11.9367	 32.595132	
11.9992	 32.580131	
12.0617	 32.631647	
12.1242	 32.679690	
12.1867	 32.690100	
12.2492	 32.730260	
12.3117	 32.725597	
12.3742	 32.749129	
12.4367	 32.776904	
12.4992	 32.781965	
12.5617	 32.793913	
12.6242	 32.809771	
12.6867	 32.813837	
12.7492	 32.838795	
12.8117	 32.878239	
12.8742	 32.911356	
12.9367	 32.923256	
12.9992	 32.950007	
13.0617	 32.917963	
13.1242	 32.887464	
13.1867	 32.917473	
13.2492	 32.898649	
13.3116	 32.931754	
13.3741	 32.888060	
13.4366	 32.894341	
13.4991	 32.937113	
13.5616	 32.917769	
13.6241	 32.975894	
13.6866	 32.954175	
13.7491	 32.958149	
13.8116	 32.923351	
13.8741	 32.835754	
13.9366	 32.901023	
13.9991	 32.930968	
14.0616	 32.967973	
14.1241	 32.932372	
14.1866	 32.826106	
